<?xml version="1.0" encoding="UTF-8" standalone="no"?>
<svg
   version="1.1"
   width="512"
   height="512"
   id="svg40"
   sodipodi:docname="meditation.svg"
   xml:space="preserve"
   inkscape:version="1.2.1 (9c6d41e410, 2022-07-14)"
   xmlns:inkscape="http://www.inkscape.org/namespaces/inkscape"
   xmlns:sodipodi="http://sodipodi.sourceforge.net/DTD/sodipodi-0.dtd"
   xmlns="http://www.w3.org/2000/svg"
   xmlns:svg="http://www.w3.org/2000/svg"><defs
     id="defs44" /><sodipodi:namedview
     id="namedview42"
     pagecolor="#ffffff"
     bordercolor="#000000"
     borderopacity="0.25"
     inkscape:showpageshadow="2"
     inkscape:pageopacity="0.0"
     inkscape:pagecheckerboard="0"
     inkscape:deskcolor="#d1d1d1"
     showgrid="false"
     inkscape:zoom="1.6875"
     inkscape:cx="232.59259"
     inkscape:cy="256.2963"
     inkscape:window-width="1920"
     inkscape:window-height="1051"
     inkscape:window-x="-9"
     inkscape:window-y="-9"
     inkscape:window-maximized="1"
     inkscape:current-layer="svg40" /><path
     d="M0 0 C7.92657903 6.2855867 10.86921338 12.83533456 13.11328125 22.67578125 C13.11328125 23.33578125 13.11328125 23.99578125 13.11328125 24.67578125 C13.79390625 24.71703125 14.47453125 24.75828125 15.17578125 24.80078125 C19.47133911 26.08030912 22.2250584 28.266169 25.11328125 31.67578125 C28.94639981 38.77798592 30.25065832 45.92561409 30.2109375 53.94921875 C30.20771484 55.10292969 30.20449219 56.25664063 30.20117188 57.4453125 C30.19279297 58.63511719 30.18441406 59.82492188 30.17578125 61.05078125 C30.17126953 62.26378906 30.16675781 63.47679688 30.16210938 64.7265625 C30.15036479 67.70968632 30.13393965 70.69270804 30.11328125 73.67578125 C30.74411621 73.97363525 31.37495117 74.27148926 32.02490234 74.57836914 C36.47406035 76.91633562 38.47581262 81.66760544 39.9453125 86.296875 C41.82788334 94.85953591 41.05646169 101.97739207 36.42578125 109.48828125 C32.18088667 115.33404848 27.20076638 118.98094785 20.11328125 120.67578125 C17.23828125 120.80078125 17.23828125 120.80078125 15.11328125 120.67578125 C15.03078125 121.78953125 14.94828125 122.90328125 14.86328125 124.05078125 C13.05503926 137.76931049 4.41969217 148.03851542 -5.58984375 156.99609375 C-7.78906073 158.60436467 -9.22428879 159.27275286 -11.88671875 159.67578125 C-11.68298422 161.24180036 -11.44738784 162.80368652 -11.19921875 164.36328125 C-11.00779297 165.66845703 -11.00779297 165.66845703 -10.8125 167 C-9.26923748 171.4604845 -6.24170891 173.84523758 -2.29296875 176.265625 C9.65210772 181.80467256 22.30738906 184.96516716 35.0390625 188.17578125 C36.01302979 188.42714844 36.98699707 188.67851562 37.99047852 188.9375 C39.84508144 189.4141142 41.70352179 189.87614572 43.56616211 190.3203125 C52.24332521 192.55473304 59.20572809 196.17285643 63.87854004 204.02468872 C66.62593085 209.92356631 67.9117336 216.3710192 69.43359375 222.671875 C69.82149304 224.23104998 70.2107488 225.78988805 70.60128784 227.34840393 C71.62168529 231.43379058 72.62582439 235.52298991 73.62585449 239.61340332 C75.22864331 246.15586139 76.85789328 252.69179601 78.48406601 259.22847176 C79.04615501 261.49668072 79.60229999 263.76627655 80.15725708 266.03623962 C80.82451998 268.75887589 81.50799348 271.4762953 82.2119751 274.18966675 C82.75383572 276.28550086 83.2738793 278.38741109 83.75042725 280.49905396 C84.85886371 284.76588116 85.99115728 287.0126627 89.72485352 289.47045898 C91.16942931 290.24078007 92.63348157 290.97550508 94.11328125 291.67578125 C94.83740204 292.0331839 95.56152283 292.39058655 96.30758667 292.75881958 C98.63007726 293.87034259 100.97250376 294.92158238 103.328125 295.9609375 C104.18330215 296.34390488 105.03847931 296.72687225 105.91957092 297.1214447 C108.62754047 298.3325988 111.3390542 299.53556733 114.05078125 300.73828125 C115.8654755 301.54828814 117.67993076 302.35883066 119.49414062 303.16992188 C125.66055449 305.92566542 125.66055449 305.92566542 131.83869934 308.654953 C133.38619523 309.34946636 134.92216184 310.07012713 136.44682312 310.81343079 C141.22495926 313.09951375 144.80235843 314.14963212 150.203125 313.9609375 C152.1222168 313.92129883 152.1222168 313.92129883 154.08007812 313.88085938 C155.39041016 313.83380859 156.70074219 313.78675781 158.05078125 313.73828125 C178.69805877 313.0558108 178.69805877 313.0558108 186.48828125 318.92578125 C192.46168382 325.18363157 194.52087936 331.48448889 194.3828125 340.01953125 C193.60951536 347.64043064 189.94129254 352.44665844 184.2109375 357.265625 C177.73593794 361.61846456 170.66486983 361.41844334 163.11328125 361.67578125 C162.1500293 361.70978027 161.18677734 361.7437793 160.19433594 361.77880859 C146.13232353 362.20381879 133.62662935 361.70917709 120.11328125 357.67578125 C117.45190561 356.98570877 114.78376472 356.33013813 112.11328125 355.67578125 C112.32984375 356.36542969 112.54640625 357.05507813 112.76953125 357.765625 C116.13430986 369.1217528 115.79961325 377.6089331 111.11328125 388.67578125 C108.10412054 393.5490856 104.79480194 397.36997059 100.11328125 400.67578125 C100.69384374 406.12389716 102.05549726 410.77458027 104.01953125 415.875 C104.30429321 416.63247025 104.58905518 417.38994049 104.88244629 418.17036438 C105.78604219 420.57059128 106.69916537 422.96704346 107.61328125 425.36328125 C108.52565741 427.77084694 109.43599314 430.17916002 110.34411621 432.58833313 C110.90774711 434.08191714 111.47411642 435.57447142 112.0435791 437.06584167 C115.17175736 445.31739872 116.25854696 451.97742789 113.1484375 460.46875 C110.4960785 466.12377957 106.31415833 470.46923778 100.58203125 473.015625 C93.93792376 474.79229298 86.0579732 474.96254732 79.67578125 472.17578125 C71.81147515 467.12794652 67.97944722 460.09590693 64.98828125 451.48828125 C64.37344677 449.74024765 63.74612503 447.99654838 63.10546875 446.2578125 C62.8410498 445.49702393 62.57663086 444.73623535 62.30419922 443.95239258 C60.65274005 440.79539037 58.89261521 438.91749381 56.11328125 436.67578125 C53.42928619 435.94806299 51.1536899 435.52544993 48.421875 435.234375 C46.69842237 435.00985694 44.97564775 434.78010006 43.25341797 434.54638672 C42.28394226 434.4165741 41.31446655 434.28676147 40.31561279 434.15301514 C36.14078764 433.53085344 32.00620324 432.73388719 27.86112595 431.940135 C-12.50985162 424.25953691 -49.49092369 423.00765189 -90.26171875 428.86328125 C-91.28295208 429.00903217 -92.30418541 429.1547831 -93.3563652 429.30495071 C-100.17459181 430.28548981 -106.98319267 431.31866136 -113.78515625 432.40625 C-114.66547453 432.5468195 -115.54579281 432.68738899 -116.4527874 432.83221817 C-118.92704543 433.23395766 -121.3981536 433.65076487 -123.86865234 434.07495117 C-124.94010451 434.25060655 -124.94010451 434.25060655 -126.03320217 434.42981052 C-132.14886636 435.51758093 -137.44410527 436.64119879 -141.15234375 441.87109375 C-142.69733634 444.99552144 -143.87032676 448.21903381 -144.96459961 451.5246582 C-147.99381563 460.65631956 -151.78482148 467.30852905 -160.01171875 472.73828125 C-167.19891857 474.47711992 -175.4699794 475.20515703 -182.38671875 472.11328125 C-188.71624338 468.23695567 -192.17983209 463.04871948 -194.44140625 456.08203125 C-195.73969056 449.06674057 -194.18894562 443.60166873 -191.88671875 437.05078125 C-191.42446899 435.69545288 -191.42446899 435.69545288 -190.95288086 434.31274414 C-188.29397818 426.60997156 -185.39988047 418.9961535 -182.37695312 411.42919922 C-182.05146484 410.60178223 -181.72597656 409.77436523 -181.390625 408.921875 C-181.10002197 408.19669678 -180.80941895 407.47151855 -180.51000977 406.72436523 C-179.69266545 404.3948663 -179.69266545 404.3948663 -179.88671875 400.67578125 C-181.23733171 399.17310264 -181.23733171 399.17310264 -183.07421875 397.92578125 C-190.851604 391.6253136 -193.96671994 383.14919626 -195.171875 373.359375 C-195.4263521 367.17447503 -193.72608621 361.53329073 -191.88671875 355.67578125 C-192.83417969 355.94841797 -192.83417969 355.94841797 -193.80078125 356.2265625 C-196.82128273 357.07526248 -199.85364594 357.87322802 -202.88671875 358.67578125 C-203.85480469 358.96195312 -204.82289063 359.248125 -205.8203125 359.54296875 C-217.97607122 362.72987179 -230.42257062 362.00541161 -242.88671875 361.67578125 C-243.68368164 361.6603125 -244.48064453 361.64484375 -245.30175781 361.62890625 C-253.80370171 361.4384754 -260.48277724 360.78204083 -266.8515625 354.84375 C-272.54410204 348.75541016 -274.32757913 343.49142467 -274.140625 335.203125 C-273.52623063 329.08753799 -271.17917948 324.09088372 -266.88671875 319.67578125 C-260.59867991 314.67393217 -254.83984538 313.32567013 -247.01953125 314.1484375 C-222.70710097 316.44269421 -204.34163591 306.69225538 -183.14501953 295.8102417 C-180.99254199 294.7289417 -178.82292705 293.7060861 -176.6328125 292.70361328 C-175.98441406 292.40089005 -175.33601563 292.09816681 -174.66796875 291.78627014 C-172.96341267 290.99435521 -171.25153041 290.21826108 -169.5390625 289.44360352 C-164.56719909 286.12979065 -163.42358426 280.57218183 -162.03320312 275.00292969 C-161.87177322 274.36462723 -161.71034332 273.72632477 -161.54402161 273.06867981 C-161.01634214 270.97574255 -160.49845318 268.88051187 -159.98046875 266.78515625 C-159.61147439 265.31536173 -159.24179303 263.84573953 -158.87145996 262.37628174 C-157.89997369 258.51501559 -156.93645861 254.65180764 -155.97503662 250.7880249 C-154.43864647 244.6190335 -152.8902838 238.45303857 -151.34162903 232.287117 C-150.8057637 230.14871523 -150.27338359 228.00947044 -149.74157715 225.87005615 C-143.37961886 200.35923095 -143.37961886 200.35923095 -135.95458984 195.38012695 C-128.04117158 191.29011369 -119.66563238 189.28837801 -111.07421875 187.17578125 C-87.83440188 182.63531625 -87.83440188 182.63531625 -69.88671875 169.67578125 C-69.10839231 167.10319459 -69.10839231 167.10319459 -68.69921875 164.42578125 C-68.54066406 163.53375 -68.38210937 162.64171875 -68.21875 161.72265625 C-68.10917969 161.0471875 -67.99960938 160.37171875 -67.88671875 159.67578125 C-68.97339844 159.30453125 -68.97339844 159.30453125 -70.08203125 158.92578125 C-81.0885283 154.02037867 -88.47573771 142.6373111 -92.82421875 131.86328125 C-94.30662123 127.94992937 -95.14239424 124.86730982 -94.88671875 120.67578125 C-96.04171875 120.59328125 -97.19671875 120.51078125 -98.38671875 120.42578125 C-105.75716645 119.46215381 -111.0600586 116.37253471 -115.63671875 110.52734375 C-120.20498014 103.76060657 -121.52897968 96.67986861 -120.32421875 88.73828125 C-119.1037894 83.33829932 -116.57890184 78.80012827 -112.88671875 74.67578125 C-111.89671875 74.34578125 -110.90671875 74.01578125 -109.88671875 73.67578125 C-109.91028442 72.55103394 -109.91028442 72.55103394 -109.93432617 71.40356445 C-109.99755436 67.93188339 -110.0359844 64.46032412 -110.07421875 60.98828125 C-110.09935547 59.80943359 -110.12449219 58.63058594 -110.15039062 57.41601562 C-110.29383054 39.96415946 -105.4755627 24.5337888 -93.12109375 11.84765625 C-92.38375 11.1309375 -91.64640625 10.41421875 -90.88671875 9.67578125 C-90.273125 9.0415625 -89.65953125 8.40734375 -89.02734375 7.75390625 C-79.97816404 -0.98589979 -68.08754917 -5.28289577 -55.88671875 -7.32421875 C-54.85289062 -7.50597656 -53.8190625 -7.68773438 -52.75390625 -7.875 C-35.29127408 -9.90348758 -15.11573231 -10.23805062 0 0 Z M-108.88671875 288.67578125 C-109.20310303 289.91497314 -109.20310303 289.91497314 -109.52587891 291.17919922 C-110.32961183 294.29513615 -111.14769081 297.40687448 -111.97509766 300.51660156 C-112.32773353 301.853345 -112.67491069 303.19154262 -113.01611328 304.53125 C-116.26350121 317.25415404 -120.25997153 327.64111066 -131.88671875 334.67578125 C-134.54299373 335.9092091 -137.0792493 336.80801796 -139.88671875 337.67578125 C-136.85278508 339.34402394 -134.01804605 340.22691982 -130.640625 340.96484375 C-129.63837891 341.18398438 -128.63613281 341.403125 -127.60351562 341.62890625 C-126.04213867 341.96148437 -126.04213867 341.96148437 -124.44921875 342.30078125 C-123.41216797 342.53023438 -122.37511719 342.7596875 -121.30664062 342.99609375 C-116.64116885 344.00290076 -112.70331542 344.67578125 -107.88671875 344.67578125 C-107.88671875 326.19578125 -107.88671875 307.71578125 -107.88671875 288.67578125 C-108.21671875 288.67578125 -108.54671875 288.67578125 -108.88671875 288.67578125 Z M28.11328125 288.67578125 C28.11328125 307.15578125 28.11328125 325.63578125 28.11328125 344.67578125 C36.14802197 343.92620175 36.14802197 343.92620175 43.90234375 342.484375 C44.86269531 342.26201172 45.82304687 342.03964844 46.8125 341.81054688 C47.77800781 341.58044922 48.74351562 341.35035156 49.73828125 341.11328125 C50.74246094 340.87931641 51.74664062 340.64535156 52.78125 340.40429688 C55.22662979 339.83370826 57.67052194 339.25746692 60.11328125 338.67578125 C57.80856388 337.139303 55.78234649 336.01351366 53.30078125 334.86328125 C44.18833994 330.28207218 39.24312255 323.7736846 35.87939453 314.14306641 C34.75945201 310.29397729 33.72748773 306.43482914 32.73828125 302.55078125 C32.38163648 301.1988412 32.02357201 299.84727483 31.6640625 298.49609375 C30.79983383 295.22603933 29.9499949 291.95296298 29.11328125 288.67578125 C28.78328125 288.67578125 28.45328125 288.67578125 28.11328125 288.67578125 Z "
     fill="#020202"
     transform="translate(295.88671875,38.32421875)"
     id="path2" /><path
     d="M0 0 C2.04296875 2.07421875 2.04296875 2.07421875 4.1875 4.6875 C11.76235581 13.34977394 20.95446545 19.22588911 32.61328125 20.34765625 C46.15733017 20.66585147 57.96778953 18.10173294 68.29296875 8.97265625 C71.50080045 5.83494109 74.3609926 2.63166156 77 -1 C80.80578717 -0.29652732 84.4726501 0.6670569 88.1875 1.75 C93.90938701 3.40205168 99.63748245 5.02803877 105.375 6.625 C106.11129639 6.83092773 106.84759277 7.03685547 107.60620117 7.24902344 C111.15088727 8.23452364 114.69740149 9.17757135 118.2734375 10.04296875 C121.09911307 10.76864015 123.61864384 11.46579893 126.25 12.6875 C126.87390625 12.95949219 127.4978125 13.23148438 128.140625 13.51171875 C134.33639644 18.47093916 135.51615283 27.02571507 137.19921875 34.3203125 C137.47973587 35.49713593 137.76025299 36.67395935 138.04927063 37.88644409 C138.93900621 41.63027257 139.81334182 45.37750723 140.6875 49.125 C141.28611992 51.65257829 141.88571907 54.17992488 142.48632812 56.70703125 C143.58230374 61.3321301 144.67494392 65.95795345 145.7565918 70.58642578 C145.97324997 71.51351349 146.18990814 72.4406012 146.41313171 73.39578247 C146.98279375 75.92364758 147.50319723 78.45690835 148 81 C143.62555282 82.73710261 139.24732262 84.46414872 134.86523438 86.18188477 C133.37423412 86.76798306 131.88431645 87.35684303 130.39550781 87.94848633 C128.25862948 88.7971201 126.11808874 89.63583291 123.9765625 90.47265625 C123.30879791 90.74030289 122.64103333 91.00794952 121.95303345 91.28370667 C120.32365532 91.91478558 118.66344255 92.46512379 117 93 C115 92 115 92 114.36157227 90.19335938 C114.18166748 89.41798828 114.0017627 88.64261719 113.81640625 87.84375 C113.61080078 86.98523438 113.40519531 86.12671875 113.19335938 85.2421875 C112.88108398 83.88480469 112.88108398 83.88480469 112.5625 82.5 C110.53942658 70.88552886 110.53942658 70.88552886 105 61 C100.89054851 60.50361997 100.89054851 60.50361997 97.33351421 62.27394581 C94.96670764 65.33745751 95.56147285 69.24644573 95.56762695 72.96948242 C95.5574353 73.88675613 95.54724365 74.80402985 95.53674316 75.74909973 C95.50652016 78.78461745 95.49733298 81.8198201 95.48828125 84.85546875 C95.47144147 86.95869503 95.45329219 89.06191121 95.43388367 91.16511536 C95.38630147 96.70365236 95.35654525 102.2421484 95.33044434 107.78082275 C95.30068028 113.43143813 95.25413572 119.08191221 95.20898438 124.73242188 C95.12285773 135.8215408 95.05555409 146.91068873 95 158 C93.96836731 158.22892441 92.93673462 158.45784882 91.87384033 158.69371033 C87.99486434 159.5545617 84.11598015 160.41582611 80.23712158 161.27720642 C78.5679566 161.64782039 76.89876774 162.01832683 75.22955322 162.38871765 C60.41719304 165.63962844 60.41719304 165.63962844 45.64599609 169.06970215 C38.16013407 170.71620297 30.95561911 168.88352877 23.6171875 167.2578125 C22.84045685 167.08877411 22.0637262 166.91973572 21.26345825 166.74557495 C18.79990198 166.20869312 16.33743736 165.66698808 13.875 165.125 C12.24746813 164.76920039 10.61986442 164.4137292 8.9921875 164.05859375 C6.6685947 163.55155042 4.34509375 163.04414025 2.02218628 162.53396606 C-4.97969066 160.99692532 -11.98979265 159.49852289 -19 158 C-19.00586624 156.82902267 -19.01173248 155.65804535 -19.01777649 154.45158386 C-19.07492597 143.4299896 -19.14764664 132.40859413 -19.23571491 121.38720226 C-19.28049135 115.72063295 -19.31973138 110.05413675 -19.34643555 104.38745117 C-19.372396 98.92139649 -19.4127467 93.45562208 -19.46318626 87.98974037 C-19.4799042 85.90173128 -19.49138769 83.81367366 -19.49761391 81.72560692 C-19.5072015 78.80659803 -19.53519638 75.8883142 -19.56762695 72.96948242 C-19.56619186 72.10129883 -19.56475677 71.23311523 -19.5632782 70.33862305 C-19.49981326 66.02413437 -19.49981326 66.02413437 -21.33742046 62.28175831 C-23.05395055 60.74197966 -23.05395055 60.74197966 -26 60.5625 C-29.02407737 60.69125353 -29.02407737 60.69125353 -30.58007812 62.63598633 C-32.28591602 65.47601871 -32.96351105 68.03617981 -33.71875 71.26171875 C-34.01136719 72.46248047 -34.30398437 73.66324219 -34.60546875 74.90039062 C-35.20444498 77.43623105 -35.80077692 79.97269744 -36.39453125 82.50976562 C-36.68714844 83.70666016 -36.97976562 84.90355469 -37.28125 86.13671875 C-37.53970703 87.23717529 -37.79816406 88.33763184 -38.06445312 89.47143555 C-38.37318359 90.30586182 -38.68191406 91.14028809 -39 92 C-42.95614494 93.31871498 -45.19358524 92.00230452 -48.85546875 90.47265625 C-49.84792351 90.07100502 -49.84792351 90.07100502 -50.86042786 89.66123962 C-52.9731758 88.80382415 -55.08026872 87.93337374 -57.1875 87.0625 C-58.61878771 86.47895136 -60.05042458 85.89625832 -61.48242188 85.31445312 C-64.99241006 83.88619915 -68.49738307 82.44623164 -72 81 C-69.74288365 70.78125066 -67.39182651 60.58546985 -64.99682617 50.39819336 C-64.4571554 48.09055136 -63.92297516 45.78161846 -63.39428711 43.47143555 C-62.62449788 40.11163876 -61.83564895 36.75680376 -61.04296875 33.40234375 C-60.81256393 32.37817856 -60.58215912 31.35401337 -60.34477234 30.29881287 C-58.63986499 23.20366926 -56.528847 16.41340685 -50.28125 12.140625 C-46.07249975 10.67758324 -41.85248326 9.68496287 -37.5 8.75 C-28.50919686 6.73888877 -19.81605189 4.15691659 -11.109375 1.14746094 C-10.23667969 0.85387695 -9.36398438 0.56029297 -8.46484375 0.2578125 C-7.697771 -0.0088623 -6.93069824 -0.27553711 -6.14038086 -0.55029297 C-3.68510294 -1.06616179 -2.33158874 -0.89328301 0 0 Z "
     fill="#518FDA"
     transform="translate(218,229)"
     id="path4"
     style="fill:#00dfc0;fill-opacity:1" /><path
     d="M0 0 C1.06525909 0.2278418 2.13051819 0.45568359 3.22805786 0.69042969 C6.65446363 1.42609119 10.07716386 2.1776097 13.5 2.9296875 C15.87724209 3.44346867 18.25468472 3.95632278 20.63232422 4.46826172 C27.25824891 5.89853042 33.87993419 7.3475665 40.5 8.8046875 C41.27476685 8.97500488 42.04953369 9.14532227 42.84777832 9.32080078 C47.76653116 10.40280278 52.68341332 11.49281854 57.59692383 12.59838867 C67.7779981 14.88679154 77.98271752 17.06254276 88.1875 19.2421875 C104.67481564 22.76471743 121.15054918 26.33519831 137.6171875 29.953125 C141.68156464 30.84450751 145.74687863 31.73150227 149.8125 32.6171875 C165.05857789 35.9399595 180.29250678 39.30889722 195.5 42.8046875 C195.01728668 50.45808071 193.46159796 57.54713066 191.4375 64.9296875 C191.15583984 65.9815625 190.87417969 67.0334375 190.58398438 68.1171875 C189.8962441 70.68164275 189.20149275 73.24396681 188.5 75.8046875 C178.68663871 74.88405258 168.90832276 73.68415136 159.125 72.4921875 C157.75758667 72.32603439 157.75758667 72.32603439 156.36254883 72.15652466 C144.11452216 70.66463699 131.89641318 69.05227799 119.68920898 67.25463867 C110.87064103 65.96839522 102.03592219 64.86013341 93.1875 63.8046875 C92.14983994 63.68080154 92.14983994 63.68080154 91.09121704 63.55441284 C90.40022919 63.47192291 89.70924133 63.38943298 88.99731445 63.30444336 C87.60237135 63.13789953 86.2074332 62.97131427 84.8125 62.8046875 C84.12177902 62.72219254 83.43105804 62.63969757 82.71940613 62.55470276 C64.69162633 60.39461755 46.69013863 58.03706284 28.72973633 55.37280273 C21.56610477 54.32839014 14.3999015 53.43193128 7.20703125 52.6171875 C5.39832015 52.40778117 3.58964508 52.19806339 1.78100586 51.98803711 C-0.89597923 51.67725899 -3.57280821 51.37269512 -6.25289917 51.08987427 C-27.92685164 48.80134587 -27.92685164 48.80134587 -35.9375 40.4921875 C-41.24210527 33.50453467 -42.41170352 26.4658709 -41.5 17.8046875 C-40.02021293 10.75103579 -36.16396228 5.35017709 -30.2734375 1.2578125 C-20.5135307 -4.25730944 -10.5454642 -2.34834667 0 0 Z "
     fill="#7F7F80"
     transform="translate(153.5,386.1953125)"
     id="path6"
     style="fill:#3b5b62;fill-opacity:1" /><path
     d="M0 0 C3.15658491 0.27448564 4.3328722 1.07386952 6.8203125 2.984375 C18.78206605 11.45978832 33.55572427 12.97426005 47.79052734 10.93408203 C55.76321764 9.33954397 64.81031532 6.11937218 70.6953125 0.234375 C73.0078125 -0.140625 73.0078125 -0.140625 75.6953125 0.234375 C80.10281959 4.76781087 81.93496274 8.62471 82.00170898 14.89819336 C82.01769638 16.03715561 82.03368378 17.17611786 82.05015564 18.34959412 C82.05551834 19.57872025 82.06088104 20.80784637 82.06640625 22.07421875 C82.07543472 23.34729385 82.0844632 24.62036896 82.09376526 25.93202209 C82.10828298 28.63133861 82.11795238 31.33023171 82.12084961 34.02954102 C82.12619342 37.45220106 82.16370561 40.87365814 82.20959377 44.29598141 C82.24692752 47.59704896 82.24790123 50.89794801 82.25390625 54.19921875 C82.27343857 55.4101268 82.29297089 56.62103485 82.31309509 57.86863708 C82.24187538 71.54760098 77.4805665 82.19145301 68.04296875 91.94140625 C57.41818976 101.81620084 44.6204851 103.91730303 30.6640625 103.609375 C18.81225729 102.98371409 9.33543969 96.432799 1.4453125 87.921875 C-1.91589257 83.78572543 -4.15272832 79.0840801 -6.3046875 74.234375 C-6.82356285 73.10573784 -6.82356285 73.10573784 -7.35292053 71.95429993 C-8.41831917 68.90964254 -8.57782959 66.50718936 -8.61108398 63.28588867 C-8.62707138 62.11084274 -8.64305878 60.93579681 -8.65953064 59.72514343 C-8.66489334 58.46361954 -8.67025604 57.20209564 -8.67578125 55.90234375 C-8.68480972 54.59662918 -8.6938382 53.29091461 -8.70314026 51.94563293 C-8.71959701 49.18435195 -8.7273241 46.42319172 -8.73022461 43.66186523 C-8.73560117 40.14123519 -8.77326254 36.62175649 -8.81896877 33.10145092 C-8.85605254 29.72258904 -8.85726108 26.34390197 -8.86328125 22.96484375 C-8.88281357 21.70939255 -8.90234589 20.45394135 -8.92247009 19.16044617 C-8.89050489 12.93067535 -8.24131407 0.83809974 0 0 Z "
     fill="#F8CFB3"
     transform="translate(219.3046875,91.765625)"
     id="path8" /><path
     d="M0 0 C5.64120106 5.04234745 7.00700072 10.86375247 8.26171875 18.14453125 C9.03121294 21.12072308 9.52779451 22.23751857 12 24 C13.134375 24.268125 14.26875 24.53625 15.4375 24.8125 C19.97402121 26.32467374 20.88462597 27.76925194 23 32 C24.87872943 38.13762854 25.25265145 43.60760794 25.125 50 C25.11597656 50.87011719 25.10695313 51.74023438 25.09765625 52.63671875 C25.07434619 54.7579342 25.03848579 56.87900562 25 59 C23.68 59 22.36 59 21 59 C20.84144531 58.31035156 20.68289063 57.62070313 20.51953125 56.91015625 C18.57065632 49.06082022 16.36648937 41.99243499 10.1875 36.5 C5.700491 34.38846635 1.77958889 33.06476239 -3.078125 34.69921875 C-6.25153633 36.23141926 -9.0523495 38.03675603 -11.9375 40.0625 C-21.7486055 46.26952593 -34.29697267 47.42977996 -45.5625 45.3125 C-51.97030995 43.69332222 -57.7857677 40.59424726 -63.125 36.75 C-66.78752553 34.52063664 -69.71358403 33.67831775 -74 34 C-79.19319247 35.4590855 -82.97939644 38.20056703 -85.90234375 42.71875 C-88.24116427 47.57950155 -89.60183041 52.80568282 -91 58 C-91.99 58 -92.98 58 -94 58 C-94.11798604 54.22943831 -94.18783864 50.45936235 -94.25 46.6875 C-94.28351563 45.63498047 -94.31703125 44.58246094 -94.3515625 43.49804688 C-94.51918992 29.87831926 -89.08234469 18.09257871 -79.75 8.25 C-60.72936949 -9.78461121 -22.34654669 -15.67962116 0 0 Z "
     fill="#5A5C5E"
     transform="translate(291,48)"
     id="path10" /><path
     d="M0 0 C0.34611328 1.10408203 0.34611328 1.10408203 0.69921875 2.23046875 C1.18841797 3.69419922 1.18841797 3.69419922 1.6875 5.1875 C2.00074219 6.15042969 2.31398438 7.11335938 2.63671875 8.10546875 C6.44035476 16.1813836 13.71674602 18.52305458 21.5 22 C22.73347368 22.55999048 23.96654004 23.12087895 25.19921875 23.68261719 C27.78859142 24.85980887 30.38116317 26.02951642 32.9765625 27.19335938 C36.36487792 28.71281481 39.7472326 30.24502795 43.12780762 31.78161621 C46.41647884 33.27563914 49.70813642 34.76302765 53 36.25 C53.62737061 36.53407715 54.25474121 36.8181543 54.90112305 37.11083984 C56.6824571 37.91603942 58.46618025 38.71594728 60.25 39.515625 C61.26578125 39.97227539 62.2815625 40.42892578 63.328125 40.89941406 C68.09153473 42.86153496 71.77939706 43.09389199 76.9609375 42.9921875 C78.3333259 42.97466782 79.70572221 42.95775987 81.078125 42.94140625 C83.2264629 42.9105055 85.37439882 42.87501299 87.52246094 42.82861328 C89.60616912 42.78602026 91.68941069 42.76276499 93.7734375 42.7421875 C95.01528809 42.7201123 96.25713867 42.69803711 97.53662109 42.67529297 C102.2733841 43.11938537 105.65855436 44.5244098 108.875 48.0625 C110.54369335 52.41964374 110.79477062 56.40063301 110 61 C108.00953102 64.86245767 105.06944129 67.50431036 101 69 C98.16837045 69.21671099 95.4379058 69.32791077 92.60546875 69.3359375 C91.36885246 69.3459227 91.36885246 69.3459227 90.10725403 69.35610962 C88.35806501 69.36623061 86.60883741 69.37092681 84.85961914 69.37060547 C82.23450052 69.3749227 79.61114304 69.41108824 76.98632812 69.44921875 C75.27604731 69.45509887 73.56575864 69.45906025 71.85546875 69.4609375 C71.09235886 69.47530853 70.32924896 69.48967957 69.54301453 69.50448608 C61.72221696 69.44172454 54.43806913 67.20342375 47 65 C45.82203354 64.65280914 44.64406708 64.30561829 43.43040466 63.94790649 C39.85571442 62.87401661 36.28999095 61.77473261 32.7265625 60.6640625 C32.0895982 60.46560101 31.4526339 60.26713951 30.79636765 60.06266403 C27.43900123 59.01579349 24.0830069 57.96464947 20.72802734 56.91015625 C17.98442388 56.04871057 15.23834552 55.19595308 12.48974609 54.35058594 C9.12260752 53.31497645 5.76024785 52.26505296 2.40073776 51.2049675 C0.53102021 50.61863997 -1.34301035 50.04612186 -3.21713257 49.47402954 C-12.51195999 46.51305768 -21.10269118 43.08163831 -26.01171875 34.19140625 C-28.62493798 28.39687665 -29.97573979 22.41338206 -31.08203125 16.17578125 C-31.25581299 15.20165283 -31.42959473 14.22752441 -31.60864258 13.22387695 C-31.73779053 12.48999756 -31.86693848 11.75611816 -32 11 C-28.08906803 9.42465771 -24.17466854 7.85836855 -20.25683594 6.30029297 C-18.92512188 5.76922744 -17.59437892 5.23571988 -16.26464844 4.69970703 C-14.3508234 3.92874164 -12.43365384 3.16668649 -10.515625 2.40625 C-9.36352539 1.94541016 -8.21142578 1.48457031 -7.02441406 1.00976562 C-4 0 -4 0 0 0 Z "
     fill="#F6CDB2"
     transform="translate(369,320)"
     id="path12" /><path
     d="M0 0 C4.37111787 0.59866555 8.16833261 1.67969444 12.2734375 3.28515625 C13.42714844 3.73310547 14.58085937 4.18105469 15.76953125 4.64257812 C16.95933594 5.11115234 18.14914063 5.57972656 19.375 6.0625 C21.19451172 6.77116211 21.19451172 6.77116211 23.05078125 7.49414062 C26.03590179 8.65763249 29.01884108 9.82640292 32 11 C31.69469332 12.72691461 31.3869119 14.45339179 31.078125 16.1796875 C30.90700195 17.14116699 30.73587891 18.10264648 30.55957031 19.09326172 C28.77709473 28.35249133 26.0572599 37.1210597 18.30078125 43.0703125 C14.61851926 45.22301951 11.02833163 46.64757904 7 48 C6.24944336 48.2585376 5.49888672 48.5170752 4.72558594 48.78344727 C-0.84488834 50.6766765 -6.46849167 52.30929667 -12.140625 53.87109375 C-16.98133432 55.24694242 -21.73402825 56.88779351 -26.5 58.5 C-34.61288703 61.23876833 -42.73411513 63.75775997 -51 66 C-51.70825928 66.25080322 -52.41651855 66.50160645 -53.14624023 66.76000977 C-61.72805677 69.56616459 -70.22804717 69.49007506 -79.1628418 69.44604492 C-81.82482457 69.43746025 -84.48470846 69.46650171 -87.14648438 69.49804688 C-88.85416603 69.49965753 -90.56185145 69.49908396 -92.26953125 69.49609375 C-93.05713333 69.50732773 -93.84473541 69.51856171 -94.65620422 69.53013611 C-99.89399272 69.46416936 -102.81211735 68.40616047 -107 65 C-109.79927794 62.06489212 -110.41226807 60.09366296 -110.375 56.0625 C-110.23475955 51.91626059 -109.82004136 49.20901259 -107 46 C-102.91362333 42.95578651 -100.14314399 42.70163828 -95.109375 42.953125 C-93.74483029 42.99603782 -92.38024447 43.03765899 -91.015625 43.078125 C-88.9023611 43.15754188 -86.79129638 43.24774039 -84.6796875 43.36328125 C-73.51878092 43.9361795 -65.39809037 41.88932539 -55.33972168 37.10412598 C-52.84464956 35.92668938 -50.32977313 34.80419499 -47.80566406 33.69042969 C-43.20773624 31.65923359 -38.62506862 29.59644493 -34.04785156 27.51904297 C-31.21358849 26.23348455 -28.37645804 24.95440876 -25.5390625 23.67578125 C-23.71857737 22.85194387 -21.89825849 22.02773898 -20.078125 21.203125 C-19.23856262 20.82496643 -18.39900024 20.44680786 -17.53399658 20.05718994 C-7.85797563 15.65947234 -7.85797563 15.65947234 -2 7 C-1.20113339 4.67561412 -0.58574374 2.39178693 0 0 Z "
     fill="#F6CEB2"
     transform="translate(143,320)"
     id="path14" /><path
     d="M0 0 C4.94446941 3.72376499 8.07497005 8.79285908 9.25390625 14.8671875 C9.9788211 23.84497916 9.01068947 30.6976454 3.31640625 37.8046875 C1.11652263 40.38001792 -0.36170476 41.43620523 -3.74609375 41.8671875 C-5.83642578 40.99194336 -5.83642578 40.99194336 -8.12890625 39.64453125 C-14.37647872 36.3381342 -20.7485405 34.92043829 -27.62109375 33.4296875 C-28.95399632 33.13110861 -30.28667471 32.83152742 -31.61914062 32.53100586 C-35.01366612 31.76945662 -38.41158869 31.02466222 -41.81140137 30.28710938 C-43.62768969 29.89288691 -45.44326546 29.49538563 -47.25878906 29.09765625 C-54.70977884 27.46754793 -62.16959247 25.88128379 -69.63354492 24.31170654 C-71.97917333 23.81814328 -74.32456438 23.32346228 -76.66992188 22.82861328 C-87.694169 20.50268794 -98.71961323 18.18250078 -109.74609375 15.8671875 C-109.74609375 15.2071875 -109.74609375 14.5471875 -109.74609375 13.8671875 C-108.88371094 13.69179443 -108.02132813 13.51640137 -107.1328125 13.33569336 C-91.04756236 10.05855719 -74.9715466 6.74437655 -58.93359375 3.2421875 C-58.26896118 3.09755066 -57.60432861 2.95291382 -56.91955566 2.80389404 C-49.4710667 1.1802719 -42.05688809 -0.53131784 -34.66625977 -2.40014648 C-21.97769793 -5.58475856 -11.51946017 -7.47347528 0 0 Z "
     fill="#5A5C5F"
     transform="translate(390.74609375,389.1328125)"
     id="path16"
     style="fill:#29454e;fill-opacity:1" /><path
     d="M0 0 C1.56684032 0.13570312 3.13314932 0.27754732 4.69921875 0.421875 C5.57151123 0.50018555 6.44380371 0.57849609 7.3425293 0.65917969 C12.77499907 1.35589331 17.35376291 2.76532218 21.75 6.0625 C27.68451663 13.81034115 30.74820199 23.25331781 34.02197266 32.35205078 C34.75705169 34.39459432 35.50083869 36.43380608 36.24609375 38.47265625 C42.58003175 55.89191745 42.58003175 55.89191745 39.75 63.25 C37.31808538 67.07158012 35.26537638 68.57820787 31 70 C25.28407456 70.53923825 22.44197671 69.63434458 18 66 C14.08564752 61.73933751 12.63162663 56.07050392 10.69335938 50.73046875 C8.34778728 44.4512312 5.99258059 38.67587976 -0.0625 35.1875 C-0.73410156 34.78917969 -1.40570313 34.39085937 -2.09765625 33.98046875 C-4.13009624 32.87133921 -4.13009624 32.87133921 -7 32 C-6.4003591 24.7208149 -4.85155267 17.97641759 -2.9375 10.9375 C-2.65583984 9.88111328 -2.37417969 8.82472656 -2.08398438 7.73632812 C-1.39510271 5.15594085 -0.70034171 2.57729586 0 0 Z "
     fill="#F5CDB1"
     transform="translate(359,432)"
     id="path18" /><path
     d="M0 0 C6.33235571 0.54653179 12.63790081 1.15388385 18.9375 2 C20.18402344 2.165 21.43054688 2.33 22.71484375 2.5 C25.21104931 2.87992189 27.57419611 3.31907259 30 4 C30.50806447 5.72681437 31.00610467 7.45657979 31.5 9.1875 C31.7784375 10.15042969 32.056875 11.11335938 32.34375 12.10546875 C32.96677608 14.85345876 33.12302812 17.19598416 33 20 C31.96875 20.391875 30.9375 20.78375 29.875 21.1875 C21.11098648 25.05709468 18.37136612 30.32145109 15 39 C14.40058594 40.69769531 14.40058594 40.69769531 13.7890625 42.4296875 C11.12126718 49.92330366 9.30175526 54.34912237 2 58 C-2.66725826 58.38893819 -5.07967871 58.45147837 -9.3125 56.375 C-13.19620505 52.94288856 -14.83022498 50.06045141 -15.2578125 44.87109375 C-14.94214914 40.13136054 -13.64687807 36.30002489 -12 31.875 C-11.53775024 30.59447754 -11.53775024 30.59447754 -11.06616211 29.28808594 C-7.50166185 19.47969361 -3.7668707 9.73218925 0 0 Z "
     fill="#F5CCB1"
     transform="translate(127,444)"
     id="path20" /><path
     d="M0 0 C1.13115234 0.24363281 1.13115234 0.24363281 2.28515625 0.4921875 C7.34794202 1.18426127 12.33407534 1.14444162 17.4375 1.125 C18.44876953 1.12886719 19.46003906 1.13273438 20.50195312 1.13671875 C25.77616829 1.12983784 30.80440276 0.92073875 36 0 C36.2475 1.175625 36.495 2.35125 36.75 3.5625 C38.64126734 10.99623135 41.90106519 15.42579889 48 20 C44.00728602 28.23497259 36.40058717 33.06295261 28 36 C20.8674325 38.24683416 11.86377706 38.23170895 5 35.25 C3.64907708 34.53216642 2.31323 33.78466855 1 33 C-0.546875 32.13375 -0.546875 32.13375 -2.125 31.25 C-5.94727509 28.25865428 -8.93030307 24.74176075 -12 21 C-11.2575 20.278125 -10.515 19.55625 -9.75 18.8125 C-3.93824655 12.86866125 -1.15350757 8.26680426 0 0 Z "
     fill="#F5CCB1"
     transform="translate(238,203)"
     id="path22" /><path
     d="M0 0 C1.875 1 1.875 1 3 3 C3.53423546 5.68175622 3.77571266 8.26369448 4 11 C5.093125 10.938125 6.18625 10.87625 7.3125 10.8125 C11 11 11 11 12.9375 12.0625 C14.6140629 15.11976176 14.36528977 17.5906288 14 21 C12.9375 22.9375 12.9375 22.9375 11 24 C7.3125 24.1875 7.3125 24.1875 4 24 C3.896875 25.258125 3.79375 26.51625 3.6875 27.8125 C3.3611035 30.27135361 3.09847653 31.82493061 1.875 34 C-1.15343786 35.61516686 -3.64645493 35.3593084 -7 35 C-8.9375 34 -8.9375 34 -10 32 C-10.23595284 29.28117977 -10.13477523 26.74042978 -10 24 C-11.258125 24.061875 -12.51625 24.12375 -13.8125 24.1875 C-16.37705844 24.16934383 -17.71463773 24.1515987 -20 22.9375 C-21.58433618 19.86784865 -21.36248449 17.38318857 -21 14 C-20 12.0625 -20 12.0625 -18 11 C-15.28117977 10.76404716 -12.74042978 10.86522477 -10 11 C-10.061875 9.741875 -10.12375 8.48375 -10.1875 7.1875 C-10.16934383 4.62294156 -10.1515987 3.28536227 -8.9375 1 C-5.86784865 -0.58433618 -3.38318857 -0.36248449 0 0 Z "
     fill="#87D046"
     transform="translate(436,217)"
     id="path24" /><path
     d="M0 0 C0.66 0 1.32 0 2 0 C2.43699219 0.99580078 2.43699219 0.99580078 2.8828125 2.01171875 C6.91115984 10.68913361 11.04296082 14.59632511 20 18 C20 18.66 20 19.32 20 20 C19.11248047 20.34611328 19.11248047 20.34611328 18.20703125 20.69921875 C9.67714496 24.21971015 5.70389735 28.66105793 2 37 C1.34 37 0.68 37 0 37 C-0.25652344 36.34773438 -0.51304688 35.69546875 -0.77734375 35.0234375 C-3.79599621 28.13237228 -7.1945974 24.29922023 -14 21 C-16.17189781 20.34510565 -16.17189781 20.34510565 -18 20 C-18 19.34 -18 18.68 -18 18 C-17.34773438 17.72027344 -16.69546875 17.44054687 -16.0234375 17.15234375 C-8.6127629 13.75305201 -3.70673435 10.26683587 -0.625 2.5625 C-0.315625 1.2940625 -0.315625 1.2940625 0 0 Z "
     fill="#F5C94B"
     transform="translate(125,34)"
     id="path26" /><path
     d="M0 0 C6.06802647 1.21360529 8.665052 2.15993654 12.3125 7.1875 C14.30902838 11.06646942 14.80009518 14.71377581 14 19 C12.51595271 23.57720203 10.71479882 26.40433431 7 29.5 C4 31 4 31 0 31 C0 20.77 0 10.54 0 0 Z "
     fill="#F5CCB1"
     transform="translate(312,117)"
     id="path28" /><path
     d="M0 0 C0 10.23 0 20.46 0 31 C-7.31937173 29.78010471 -7.31937173 29.78010471 -11 26 C-13.76629396 21.03974877 -14.96790804 16.58746915 -14 11 C-12.51621345 6.6546251 -10.36757101 3.93553017 -6.4375 1.5625 C-3 0 -3 0 0 0 Z "
     fill="#F5CDB1"
     transform="translate(200,117)"
     id="path30" /><path
     d="M0 0 C15.50754496 0.41025251 30.68250989 2.64459625 46 5 C43.1016957 7.8983043 39.79596009 7.79476259 35.88671875 8.2890625 C35.08015335 8.39721283 34.27358795 8.50536316 33.44258118 8.61679077 C31.73413807 8.84421725 30.02514541 9.06754716 28.31567383 9.28710938 C25.70721745 9.62246503 23.1006592 9.97024569 20.49414062 10.3203125 C18.83343043 10.53979844 17.17262585 10.75857161 15.51171875 10.9765625 C14.3458448 11.13120468 14.3458448 11.13120468 13.15641785 11.28897095 C9.41510506 11.76635378 5.7731778 12.12263647 2 12 C0.69507531 7.84055256 -0.12019705 4.34963091 0 0 Z "
     fill="#57595C"
     transform="translate(168,450)"
     id="path32"
     style="fill:#29454e;fill-opacity:1" /><path
     d="M0 0 C0.66 0 1.32 0 2 0 C2.391875 0.9075 2.78375 1.815 3.1875 2.75 C5.11427747 6.20491133 6.80378291 7.73926108 10 10 C11.33535898 10.99729342 12.6690441 11.99683791 14 13 C13.39671875 13.35191406 12.7934375 13.70382812 12.171875 14.06640625 C6.68722097 17.45450704 3.70101278 20.12823309 1 26 C0.608125 25.46375 0.21625 24.9275 -0.1875 24.375 C-0.785625 23.59125 -1.38375 22.8075 -2 22 C-3.1446875 20.4840625 -3.1446875 20.4840625 -4.3125 18.9375 C-7.05433055 15.94061544 -9.28668801 14.55440967 -13 13 C-10.88089857 11.35181 -8.90862924 9.95431462 -6.5 8.75 C-3.05644365 6.33951056 -1.89861287 3.72690675 0 0 Z "
     fill="#6FD6F9"
     transform="translate(67,424)"
     id="path34" /><path
     d="M0 0 C2.53103946 0.07794868 3.78999008 0.15426843 6 1.4375 C7.55114121 4.17480802 7.99939022 6.15701076 8.0625 9.3125 C6.5625 12.1875 6.5625 12.1875 4.0625 14.3125 C0.5625 14.9375 0.5625 14.9375 -2.9375 14.3125 C-5.4375 12.25 -5.4375 12.25 -6.9375 9.3125 C-6.73458297 3.3264476 -6.40780043 0.50855559 0 0 Z "
     fill="#F5C84B"
     transform="translate(403.9375,284.6875)"
     id="path36" /><path
     d="M0 0 C2.6923481 2.18753283 2.93936827 3.58423955 3.4375 7 C3 10 3 10 1.375 12.375 C-1.69477548 14.4753727 -3.34556561 14.53293835 -7 14 C-9.84821386 12.53740369 -10.76625002 11.63446424 -11.875 8.625 C-12.02227313 5.53226435 -11.43826733 3.7251381 -10 1 C-6.80594916 -0.59702542 -3.46728571 -0.50343003 0 0 Z "
     fill="#FC647D"
     transform="translate(191,0)"
     id="path38" /></svg>
